<?xml version="1.0" standalone="no"?>
<!DOCTYPE svg PUBLIC "-//W3C//DTD SVG 20010904//EN"
 "http://www.w3.org/TR/2001/REC-SVG-20010904/DTD/svg10.dtd">
<svg version="1.0" xmlns="http://www.w3.org/2000/svg"
 width="500.000000pt" height="500.000000pt" viewBox="0 0 500.000000 500.000000"
 preserveAspectRatio="xMidYMid meet">

<g transform="translate(0.000000,500.000000) scale(0.100000,-0.100000)"
fill="#000000" stroke="none">
<path d="M1821 3504 c-102 -27 -181 -74 -261 -154 -125 -125 -178 -270 -165
-452 17 -242 136 -410 378 -530 l57 -29 -35 -46 c-112 -146 -145 -379 -81
-564 75 -215 267 -358 538 -400 110 -17 350 -6 454 20 87 22 228 80 312 129
l52 31 0 -309 0 -310 170 0 170 0 0 1150 0 1150 220 0 220 0 0 145 0 145 -515
0 -515 0 0 -145 0 -145 125 0 125 0 0 -644 0 -644 -62 -57 c-168 -152 -321
-220 -520 -232 -160 -10 -292 26 -376 102 -68 61 -95 127 -95 225 1 220 149
331 444 334 l117 1 12 130 c6 72 12 137 13 145 3 24 -172 34 -298 18 -147 -19
-237 -15 -325 11 -171 53 -261 151 -277 302 -7 67 10 166 37 219 77 150 289
208 386 105 62 -67 62 -171 0 -266 -15 -23 -24 -45 -19 -49 4 -4 60 -40 123
-79 l114 -71 38 37 c20 20 56 74 80 121 l43 85 0 116 c0 109 -2 120 -30 174
-53 106 -177 195 -320 232 -76 19 -261 19 -334 -1z"/>
</g>
</svg>
