<?xml version="1.0" standalone="no"?>
<!DOCTYPE svg PUBLIC "-//W3C//DTD SVG 20010904//EN"
 "http://www.w3.org/TR/2001/REC-SVG-20010904/DTD/svg10.dtd">
<svg version="1.0" xmlns="http://www.w3.org/2000/svg"
 width="500.000000pt" height="500.000000pt" viewBox="0 0 500.000000 500.000000"
 preserveAspectRatio="xMidYMid meet">

<g transform="translate(0.000000,500.000000) scale(0.100000,-0.100000)"
fill="#000000" stroke="none">
<path d="M1330 3335 l0 -145 260 0 260 0 0 -398 0 -398 -110 -11 c-87 -9 -118
-16 -154 -37 -116 -68 -116 -249 1 -430 92 -144 257 -269 370 -283 102 -12
194 44 221 134 9 30 12 219 12 732 l0 691 388 -2 387 -3 3 -1147 2 -1148 165
0 165 0 2 1148 3 1147 218 3 217 2 0 145 0 145 -1205 0 -1205 0 0 -145z"/>
</g>
</svg>
