<?xml version="1.0" standalone="no"?>
<!DOCTYPE svg PUBLIC "-//W3C//DTD SVG 20010904//EN"
 "http://www.w3.org/TR/2001/REC-SVG-20010904/DTD/svg10.dtd">
<svg version="1.0" xmlns="http://www.w3.org/2000/svg"
 width="500.000000pt" height="500.000000pt" viewBox="0 0 500.000000 500.000000"
 preserveAspectRatio="xMidYMid meet">

<g transform="translate(0.000000,500.000000) scale(0.100000,-0.100000)"
fill="#000000" stroke="none">
<path d="M1257 3483 c-4 -3 -7 -71 -7 -150 l0 -143 265 0 265 0 0 -479 0 -478
-113 -5 c-96 -3 -119 -8 -156 -29 -63 -34 -84 -67 -89 -138 -8 -111 61 -246
193 -376 96 -96 171 -142 253 -157 80 -15 134 0 182 51 47 49 60 94 67 234 l6
117 458 0 459 0 0 -520 0 -520 168 2 167 3 3 1148 2 1147 215 0 216 0 -3 148
-3 147 -1271 3 c-699 1 -1274 -1 -1277 -5z m1783 -773 l0 -480 -460 0 -460 0
0 480 0 480 460 0 460 0 0 -480z"/>
</g>
</svg>
