<?xml version="1.0" standalone="no"?>
<!DOCTYPE svg PUBLIC "-//W3C//DTD SVG 20010904//EN"
 "http://www.w3.org/TR/2001/REC-SVG-20010904/DTD/svg10.dtd">
<svg version="1.0" xmlns="http://www.w3.org/2000/svg"
 width="500.000000pt" height="500.000000pt" viewBox="0 0 500.000000 500.000000"
 preserveAspectRatio="xMidYMid meet">

<g transform="translate(0.000000,500.000000) scale(0.100000,-0.100000)"
fill="#000000" stroke="none">
<path d="M1785 4623 c-358 -33 -636 -217 -725 -482 -62 -185 -43 -419 49 -598
11 -23 21 -47 21 -53 0 -6 -57 -10 -165 -10 l-165 0 0 -145 0 -145 185 0 185
0 0 -1150 0 -1150 170 0 170 0 0 1150 0 1150 990 0 990 0 0 -379 0 -380 -647
-3 -648 -3 -48 -24 c-30 -15 -58 -38 -75 -64 -24 -37 -27 -49 -26 -131 0 -81
4 -99 33 -161 80 -174 254 -338 389 -366 115 -23 225 32 251 126 6 22 11 104
11 183 l0 142 380 0 380 0 0 -620 0 -620 170 0 170 0 0 1150 0 1150 215 0 215
0 0 145 0 145 -268 0 -268 0 -66 98 c-155 227 -376 471 -568 625 -253 204
-520 333 -802 388 -151 29 -375 44 -503 32z m420 -318 c326 -59 599 -215 885
-504 116 -117 258 -282 268 -312 2 -6 -355 -8 -934 -7 l-938 3 -49 92 c-116
222 -100 441 44 585 60 60 186 123 284 142 95 19 340 20 440 1z"/>
</g>
</svg>
