<?xml version="1.0" standalone="no"?>
<!DOCTYPE svg PUBLIC "-//W3C//DTD SVG 20010904//EN"
 "http://www.w3.org/TR/2001/REC-SVG-20010904/DTD/svg10.dtd">
<svg version="1.0" xmlns="http://www.w3.org/2000/svg"
 width="500.000000pt" height="500.000000pt" viewBox="0 0 500.000000 500.000000"
 preserveAspectRatio="xMidYMid meet">

<g transform="translate(0.000000,500.000000) scale(0.100000,-0.100000)"
fill="#000000" stroke="none">
<path d="M1310 3335 l0 -145 165 0 165 0 0 -377 c1 -625 16 -782 89 -938 88
-187 238 -304 457 -356 76 -18 110 -20 229 -16 187 6 257 24 423 108 75 38
138 69 139 69 2 0 3 -178 3 -395 l0 -395 165 0 165 0 2 1148 3 1147 218 3 217
2 0 145 0 145 -1220 0 -1220 0 0 -145z m1668 -709 l2 -560 -37 -38 c-50 -52
-167 -132 -245 -168 -91 -42 -180 -62 -283 -63 -171 -2 -277 42 -346 143 -77
113 -88 212 -89 813 l0 437 498 -2 497 -3 3 -559z"/>
</g>
</svg>
