<?xml version="1.0" standalone="no"?>
<!DOCTYPE svg PUBLIC "-//W3C//DTD SVG 20010904//EN"
 "http://www.w3.org/TR/2001/REC-SVG-20010904/DTD/svg10.dtd">
<svg version="1.0" xmlns="http://www.w3.org/2000/svg"
 width="500.000000pt" height="500.000000pt" viewBox="0 0 500.000000 500.000000"
 preserveAspectRatio="xMidYMid meet">

<g transform="translate(0.000000,500.000000) scale(0.100000,-0.100000)"
fill="#000000" stroke="none">
<path d="M1835 4615 c-93 -15 -185 -42 -185 -53 0 -8 91 -286 96 -291 2 -2 51
9 110 24 146 37 258 34 354 -11 163 -77 270 -261 395 -677 19 -65 35 -120 35
-123 0 -2 -223 -4 -495 -4 l-495 0 0 -145 0 -145 497 -2 497 -3 17 -46 c49
-130 64 -339 34 -453 -9 -33 -28 -82 -43 -110 -32 -61 -142 -172 -204 -205
l-44 -24 -54 57 c-34 36 -77 68 -119 89 -59 29 -74 32 -151 31 -198 -2 -288
-107 -255 -297 20 -118 96 -239 295 -472 173 -203 605 -625 864 -844 l87 -74
110 109 c60 60 109 111 109 115 0 3 -51 46 -112 95 -196 155 -437 374 -635
578 -106 109 -193 202 -193 206 0 5 52 33 115 64 390 187 558 402 581 743 7
106 -7 255 -32 344 -9 30 -18 64 -21 77 l-5 22 216 0 216 0 0 145 0 145 -234
0 -234 0 -7 33 c-15 67 -98 326 -141 435 -186 478 -392 659 -767 676 -74 4
-142 0 -202 -9z"/>
</g>
</svg>
