<?xml version="1.0" standalone="no"?>
<!DOCTYPE svg PUBLIC "-//W3C//DTD SVG 20010904//EN"
 "http://www.w3.org/TR/2001/REC-SVG-20010904/DTD/svg10.dtd">
<svg version="1.0" xmlns="http://www.w3.org/2000/svg"
 width="500.000000pt" height="500.000000pt" viewBox="0 0 500.000000 500.000000"
 preserveAspectRatio="xMidYMid meet">

<g transform="translate(0.000000,500.000000) scale(0.100000,-0.100000)"
fill="#000000" stroke="none">
<path d="M550 3360 l0 -150 419 0 419 0 16 -40 c41 -103 60 -369 35 -506 -17
-100 -49 -182 -91 -235 l-39 -50 -69 64 c-86 81 -148 107 -258 107 -97 0 -143
-13 -188 -52 -75 -66 -95 -169 -59 -297 41 -142 233 -396 575 -760 129 -138
499 -494 573 -552 l29 -22 109 109 c60 60 108 112 107 115 -2 3 -64 57 -138
120 -164 137 -546 517 -658 653 -45 55 -82 102 -82 105 0 3 42 27 93 54 l92
47 115 -29 c357 -90 793 -105 1034 -35 27 8 56 14 63 14 10 0 13 -105 15 -552
l3 -553 165 0 165 0 3 1148 2 1147 370 0 370 0 2 -1147 3 -1148 168 -3 167 -2
0 1150 0 1150 215 0 215 0 0 150 0 150 -1980 0 -1980 0 0 -150z m2110 -590 l0
-439 -37 -10 c-21 -6 -92 -20 -158 -33 -105 -20 -151 -23 -365 -22 -191 0
-267 4 -345 18 -55 10 -102 20 -104 22 -2 1 10 25 26 51 83 135 118 294 111
508 -5 133 -30 272 -59 327 -9 17 11 18 461 18 l470 0 0 -440z"/>
</g>
</svg>
